<?xml version="1.0" standalone="no"?><!DOCTYPE svg PUBLIC "-//W3C//DTD SVG 1.1//EN" "http://www.w3.org/Graphics/SVG/1.1/DTD/svg11.dtd"><svg class="icon" height="512" viewBox="0 0 1609 1024" version="1.1" xmlns="http://www.w3.org/2000/svg"><path d="M1597.488078 781.221991a509.253571 509.253571 0 0 0-98.447239-95.229053 460.395654 460.395654 0 0 0-78.650518-48.370312 521.44367 521.44367 0 0 0 82.405069-213.619293 36.472776 36.472776 0 0 0-22.283501-37.643025 525.14946 525.14946 0 0 0-132.823317-33.449631 583.320612 583.320612 0 0 0-92.303429-2.535541 528.757729 528.757729 0 0 0-35.985172-225.126746 33.742194 33.742194 0 0 0-37.643025-21.600855c-45.542209 6.095049-89.816649 19.016554-132.091912 37.252942-28.085988 12.38514-55.099247 26.818218-80.649694 43.884356A541.581713 541.581713 0 0 0 826.683746 8.954847 36.082693 36.082693 0 0 0 781.141536 7.345754c-59.926526 48.419073-109.75965 108.54064-143.989448 177.63412a564.64538 564.64538 0 0 0-81.527381-43.884356 503.938688 503.938688 0 0 0-132.433234-37.301702c-15.652087-3.218186-30.962851 6.680174-37.252943 21.600855a514.714735 514.714735 0 0 0-35.107484 225.175507 590.634671 590.634671 0 0 0-93.034835 2.48678c-45.152126 5.412404-90.206732 16.578534-132.823317 33.498391a34.717402 34.717402 0 0 0-21.454574 37.594265 520.907305 520.907305 0 0 0 81.576141 213.619293c-28.085988 14.042994-54.172799 29.890122-78.650518 48.419073a509.253571 509.253571 0 0 0-98.447238 95.229052 34.424839 34.424839 0 0 0 0.877687 45.152127c48.760396 61.194296 110.881139 110.881139 182.51016 145.257218C260.13671 1004.495842 337.519458 1024 419.046839 1024c81.917464 0 159.836576-19.455398 228.393693-52.173623a521.931274 521.931274 0 0 0 155.106818-115.367096c45.200887 47.492625 97.179468 86.891025 156.033265 115.367096A537.339559 537.339559 0 0 0 1186.974308 1024c81.527381 0 159.836576-19.455398 228.393693-52.173623a525.295741 525.295741 0 0 0 181.24239-145.257218 35.79013 35.79013 0 0 0 0.877687-45.347168z m-351.464931-359.559157a407.003021 407.003021 0 0 1 93.619959 0.682646c30.231445 3.803311 59.877766 9.89836 88.158795 19.114075-26.135572 126.679508-105.468735 235.025106-217.227562 299.973953a448.546878 448.546878 0 0 1-193.676291 59.585203c-26.428134 1.950416-52.173623 1.609093-77.72407-0.341322 30.231445-14.042994 59.536443-29.890122 87.622431-48.419073a532.707321 532.707321 0 0 0 219.226738-330.595482z m-1069.412994 19.796721a487.750236 487.750236 0 0 1 88.548878-19.114075 393.350111 393.350111 0 0 1 94.302605-0.682646 524.661856 524.661856 0 0 0 219.42178 330.595482c26.818218 18.52895 56.65958 34.376079 87.768711 48.419073-26.428134 1.950416-52.514946 2.48678-78.601757 0.341322a451.033658 451.033658 0 0 1-193.822572-59.585203 458.006395 458.006395 0 0 1-217.617645-299.973953z m439.526205 467.709714c-59.585203 28.963675-126.728268 44.274439-197.820925 44.274439a452.057627 452.057627 0 0 1-197.772164-44.274439 463.857643 463.857643 0 0 1-139.844814-106.0051 448.595639 448.595639 0 0 1 66.6067-61.194297c25.209124-18.52895 52.563706-34.717402 80.259611-48.028989a534.413935 534.413935 0 0 0 132.091911 107.955515c71.287698 40.471128 148.134082 63.388514 223.907736 68.752158 33.449631 2.925624 67.484387 1.950416 100.056332-2.145457-21.454574 15.457045-43.396752 28.963675-67.484387 40.66617z m1.609093-214.887063A458.006395 458.006395 0 0 1 423.727837 386.701631v-1.950416l-0.877687-1.26777v-0.731406c-1.26777-9.89836-1.999176-20.674408-2.925624-30.572768a448.936961 448.936961 0 0 1 21.454574-174.562216 457.42127 457.42127 0 0 1 86.013338 27.695904 484.48329 484.48329 0 0 1 81.917464 45.152127 520.419701 520.419701 0 0 0-27.793425 168.857249c0 81.868704 19.504158 158.910129 52.222383 227.662287 14.433077 30.572768 32.766986 59.19512 52.563707 86.159619a471.513025 471.513025 0 0 1-68.557116-38.862035z m184.655618 62.657108a443.622078 443.622078 0 0 1-105.127413-139.844815 452.106387 452.106387 0 0 1-45.152126-197.772164c0-71.092657 16.188451-138.235721 45.152126-198.698611a458.055155 458.055155 0 0 1 105.468735-139.844815 470.537817 470.537817 0 0 1 105.468736 139.844815 454.836969 454.836969 0 0 1 45.152126 198.698611 451.521262 451.521262 0 0 1-45.152126 197.772164 437.136946 437.136946 0 0 1-105.810058 139.844815z m168.418406-110.198494a517.250276 517.250276 0 0 0 52.173623-227.613526c0-59.585203-9.508277-115.025773-27.695905-168.80849a484.48329 484.48329 0 0 1 81.917465-45.200886c28.281029-12.043818 57.049663-21.01573 86.891024-27.695905a459.713009 459.713009 0 0 1 20.723169 174.562216c0 9.89836-1.609093 20.723168-3.413228 30.621528v0.682646l-0.390083 1.26777v1.950416a457.860114 457.860114 0 0 1-193.968854 307.629335 415.828653 415.828653 0 0 1-67.87447 38.520713c19.796721-26.671936 37.252942-55.294289 51.686019-85.867057z m413.585674 262.428449a451.521262 451.521262 0 0 1-197.772164 44.274439 452.642752 452.642752 0 0 1-197.820924-44.274439 471.951868 471.951868 0 0 1-67.484388-40.471129 478.632042 478.632042 0 0 0 100.251373 2.145458c76.505061-5.363644 153.546485-28.281029 223.907737-68.752158a527.928802 527.928802 0 0 0 132.091911-107.955516 423.240233 423.240233 0 0 1 80.259611 48.02899c24.477719 18.187628 46.80998 38.862035 67.484387 61.194296a497.258513 497.258513 0 0 1-140.917543 105.810059z" /></svg>